PathFileType	3	(X/Y/Z)	D:\minhoCalibration\240510\subject3_KPNP\preferred\preferred20.trc
DataRate	CameraRate	NumFrames	NumMarkers	Units	OrigDataRate	OrigDataStartFrame	OrigNumFrames
200.0	200.0	21	10	mm	200.0	178	146	
Frame#	Time	Left_Ankle_Outer1			Left_Ankle_Inner1			Left_Knee_Outer1			Left_Knee_Inner1			Left_Wrist1			Right_Wrist1			Right_Knee_Inner1			Right_Knee_Outer1			Right_Ankle_Inner1			Right_Ankle_Outer1			
		X1	Y1	Z1	X2	Y2	Z2	X3	Y3	Z3	X4	Y4	Z4	X5	Y5	Z5	X6	Y6	Z6	X7	Y7	Z7	X8	Y8	Z8	X9	Y9	Z9	X10	Y10	Z10	
178	0.88	-371.20151	117.26274	-506.23279	-420.69308	137.29128	-484.21036	-193.19701	515.1087	-441.38531	-257.42853	534.52661	-361.48456	-212.78296	880.81195	-688.41339	-406.52094	1103.927	-461.07574	-328.73654	991.4079	-65.944283	-356.50208	1091.3916	-108.14381	-688.37799	881.25299	159.95895	-712.19958	981.6322	169.79497
179	0.885	-371.14041	116.72929	-506.27457	-420.40326	137.06427	-484.08936	-193.62605	514.82635	-441.2262	-257.19864	534.5506	-361.6174	-215.51909	878.81403	-689.33765	-405.58081	1106.7645	-462.87033	-324.6304	999.46094	-68.707062	-353.27603	1095.8461	-113.741	-660.60486	907.37866	199.48334	-682.34406	1008.8021	205.19275
180	0.89	-371.09268	116.36895	-506.28113	-420.37158	136.74435	-484.12701	-194.27937	514.54846	-440.99734	-257.03415	534.10315	-361.40332	-217.92172	876.94751	-689.62683	-404.34381	1108.8417	-465.40781	-321.97241	1005.4519	-71.712898	-350.95786	1098.8811	-119.0891	-628.94916	933.51892	236.57475	-648.17383	1036.9607	236.44211
181	0.895	-370.22565	116.80328	-506.95187	-420.51178	136.50674	-484.21216	-195.10257	514.25903	-440.80032	-257.3876	533.89984	-361.1098	-220.02232	875.21198	-689.23541	-404.66647	1110.4913	-468.13776	-320.52356	1008.9539	-74.646202	-351.23798	1100.3419	-123.03081	-592.33002	961.62494	269.20636	-610.50824	1065.0701	263.23325
182	0.9	-371.14279	116.41076	-506.39767	-420.81308	136.28412	-484.28879	-196.16316	514.02637	-440.33725	-258.61197	533.69501	-360.57407	-221.61823	873.81183	-688.05341	-402.91159	1111.8706	-470.37418	-320.28989	1010.3745	-77.244514	-352.67688	1100.8287	-126.04198	-553.24323	989.87933	296.48264	-570.28265	1093.1857	284.71771
183	0.905	-371.79086	116.0282	-506.48575	-421.2691	136.19791	-484.36664	-197.03481	514.15582	-440.0387	-259.82483	533.59198	-359.94269	-222.10327	873.08014	-686.18298	-403.27658	1113.4265	-472.18741	-320.91037	1010.7734	-79.572906	-355.27039	1099.8385	-128.3071	-508.85773	1013.9952	314.27042	-527.76044	1119.0588	299.55313
184	0.91	-371.56497	116.52512	-507.06924	-421.98236	136.03239	-484.48688	-198.61172	514.16443	-439.0686	-261.57922	533.27563	-359.76224	-223.77899	872.5069	-682.57416	-404.62811	1115.1094	-473.28598	-322.04977	1010.6313	-81.874329	-358.09482	1097.6823	-130.41246	-462.4747	1035.196	325.1965	-483.27689	1141.8413	307.21494
185	0.915	-372.14612	116.65981	-507.14487	-422.63605	136.00322	-484.43512	-199.97324	514.30127	-438.09106	-263.50232	533.42041	-358.8237	-223.92441	872.88281	-678.32159	-406.79181	1116.9203	-473.76309	-323.30276	1010.0848	-83.815971	-361.79092	1095.2408	-131.91606	-419.18802	1057.9104	328.2854	-442.34769	1165.3572	304.04626
186	0.92	-372.78195	116.8418	-507.07388	-423.32803	135.88171	-484.47012	-201.5274	514.72546	-436.71146	-265.78577	533.35907	-357.5947	-223.73024	873.85803	-673.03937	-409.66861	1118.6809	-473.70456	-323.41306	1008.9777	-85.228706	-366.0386	1093.4967	-132.36681	-409.31677	1079.4518	326.47525	-415.76605	1182.9355	292.28784
187	0.925	-373.63739	116.8848	-506.91403	-424.07904	135.74448	-484.61652	-202.97894	515.30371	-434.81955	-268.30984	533.29883	-355.90146	-222.75549	875.53204	-667.03369	-413.40479	1120.1958	-472.74826	-321.66928	1006.7996	-85.939339	-368.84311	1095.8151	-132.54187	-413.56104	1089.5703	325.20016	-403.72824	1190.7677	285.83691
188	0.93	-374.05701	116.9072	-506.87726	-424.58182	135.59543	-484.75369	-204.17412	515.89081	-432.60782	-270.97064	533.6828	-353.47327	-221.27621	877.14795	-660.5611	-417.79642	1120.4031	-472.14337	-319.06757	1005.7008	-86.470947	-371.26709	1101.7158	-132.3989	-408.5636	1089.902	325.57996	-403.79245	1193.2804	290.17618
189	0.935	-373.99991	117.072	-506.71317	-424.88776	135.43668	-484.73477	-205.6656	516.64777	-429.65906	-273.86145	533.28448	-352.00653	-218.87788	878.68213	-653.94269	-422.09705	1119.5703	-470.90866	-315.42838	1008.1237	-87.705872	-369.3139	1107.8547	-133.64339	-407.75607	1083.3755	323.7312	-406.61258	1188.5173	293.0675
190	0.94	-373.51169	117.25632	-506.45508	-424.69995	135.27888	-485.04526	-207.3409	517.26343	-426.10907	-277.36993	533.15308	-349.2739	-216.21823	880.20172	-647.02142	-427.82843	1119.7373	-469.44547	-310.6731	1013.7998	-89.54586	-361.85773	1111.0154	-134.06255	-412.15887	1073.0474	319.37167	-413.78534	1179.1917	292.22156
191	0.945	-373.50299	116.68161	-505.66876	-424.27682	135.29243	-485.41895	-209.15613	517.89349	-422.10788	-280.3197	533.27863	-346.92029	-213.58354	881.61792	-640.08661	-432.67679	1118.5094	-468.26526	-305.89941	1020.6732	-91.471428	-350.56262	1112.124	-133.7056	-410.71741	1064.4132	320.33936	-421.31888	1169.6151	297.13202
192	0.95	-372.21896	116.76175	-505.427	-423.52805	135.22293	-485.86578	-210.88606	518.58325	-417.83353	-284.0314	533.20612	-344.819	-210.64091	883.05798	-633.47382	-437.31625	1116.9331	-467.16016	-302.83389	1027.7155	-93.204453	-338.41635	1111.4745	-134.86488	-409.07001	1057.3007	320.08463	-424.41071	1157.5643	301.5112
193	0.955	-370.19119	117.71936	-505.27502	-422.50079	135.10072	-486.40323	-212.68361	519.16534	-413.34656	-287.87689	533.35681	-343.86832	-207.75334	884.62897	-627.26404	-441.04526	1114.6074	-465.51501	-303.58582	1032.7507	-93.76123	-329.94528	1107.7822	-139.05174	-404.81177	1047.9962	318.41422	-424.93698	1148.3113	304.38062
194	0.96	-369.38269	117.25092	-504.57446	-421.47913	135.0257	-486.97006	-214.50449	519.80817	-408.871	-291.85535	533.74689	-341.7247	-204.95985	886.07886	-621.73358	-444.21594	1112.3898	-464.10364	-307.8703	1032.8192	-92.22422	-330.81442	1102.2107	-142.79271	-400.13174	1038.7952	316.98398	-423.74454	1140.8547	304.41733
195	0.965	-367.16818	117.79662	-504.86673	-419.97241	134.63805	-487.26825	-216.18948	520.57056	-404.73502	-296.23242	534.72137	-341.36774	-202.79587	887.36078	-616.7016	-448.27817	1110.5115	-462.63614	-312.0549	1028.8842	-91.260925	-337.95715	1101.9977	-143.86566	-396.88162	1031.933	317.64035	-423.53558	1134.4727	306.17368
196	0.97	-364.88733	118.17896	-504.7984	-418.8165	134.91559	-487.99741	-217.72551	521.55164	-401.00327	-300.34985	534.99414	-341.47006	-200.75111	888.57587	-612.51105	-451.10385	1107.9482	-461.69202	-315.45645	1023.7264	-91.820686	-348.33835	1104.6338	-142.35822	-394.30499	1025.3038	318.85419	-424.00592	1127.1809	309.07767
197	0.975	-363.50092	118.46792	-504.2348	-417.26855	135.11026	-488.42447	-219.22615	522.63483	-397.75626	-303.96967	535.86963	-341.31299	-199.07295	889.62842	-608.87616	-453.10629	1105.4823	-460.7919	-318.56516	1018.8251	-92.742302	-358.79208	1106.0552	-140.11215	-391.75165	1018.6634	320.74744	-424.81094	1119.3937	310.83878
198	0.98	-361.77209	118.89471	-503.8671	-415.9437	135.27151	-488.67615	-220.6834	524.11694	-394.8494	-307.07889	536.62793	-341.53888	-197.34456	890.71844	-605.75928	-456.40128	1105.0079	-461.18378	-321.79663	1014.6608	-93.414009	-370.73328	1104.5747	-136.68146	-384.89667	1013.4099	325.06683	-426.52869	1111.5208	311.50296
